<svg xmlns="http://www.w3.org/2000/svg" width="512" height="512" version="1.0" viewBox="0 0 384 384"><defs><clipPath id="a"><path d="M145 255h79v77.879h-79Zm0 0"/></clipPath></defs><path fill="#3d96d9" fill-rule="evenodd" d="m140.54 190.379 79.25-45.715 33.66-19.418c.968-16.652 10.034-32.508 25.573-41.469 15.918-9.183 34.711-8.875 49.82-.836l-8.437 4.868-29.148 16.816v31.293l13.566 7.824 13.563 7.824 29.144-16.812 8.438-4.867c-.586 17.093-9.715 33.511-25.633 42.691-15.54 8.965-33.816 8.883-48.73 1.395l-33.66 19.418-79.25 45.714-33.66 19.418c-.97 16.653-10.036 32.508-25.575 41.473-15.918 9.18-34.711 8.871-49.82.832l8.437-4.867 29.145-16.813v-31.296l-13.563-7.825-13.562-7.82-29.145 16.813-8.437 4.867c.586-17.098 9.714-33.512 25.632-42.696 15.536-8.96 33.817-8.879 48.73-1.394Zm0 0"/><path fill="#f5874f" fill-rule="evenodd" d="M221.438 74.527a31 31 0 0 1 2.792 5.172l7.286-1.73a2.076 2.076 0 0 1 2.492 1.535l1.402 5.887a2.074 2.074 0 0 1-1.535 2.492l-7.293 1.734a31 31 0 0 1-.164 5.867l7.176 2.145a2.075 2.075 0 0 1 1.394 2.574l-1.734 5.8a2.08 2.08 0 0 1-2.578 1.392l-7.172-2.141a30.4 30.4 0 0 1-3.086 5l5.14 5.437a2.08 2.08 0 0 1-.081 2.93l-4.407 4.156a2.08 2.08 0 0 1-2.93-.086L213 117.25a30 30 0 0 1-5.172 2.793l1.73 7.281a2.08 2.08 0 0 1-1.538 2.492l-5.891 1.399a2.077 2.077 0 0 1-2.496-1.535l-1.73-7.285c-1.962.132-3.926.074-5.876-.165l-2.144 7.172a2.08 2.08 0 0 1-2.578 1.391l-5.805-1.73a2.08 2.08 0 0 1-1.39-2.579l2.14-7.164a30.6 30.6 0 0 1-5.004-3.086l-5.445 5.137a2.07 2.07 0 0 1-2.926-.082l-4.16-4.398a2.07 2.07 0 0 1 .082-2.926l5.445-5.14a31 31 0 0 1-2.797-5.169l-7.28 1.73a2.083 2.083 0 0 1-2.497-1.534l-1.402-5.887a2.08 2.08 0 0 1 1.539-2.496l7.289-1.73a31 31 0 0 1 .168-5.868l-7.18-2.144a2.08 2.08 0 0 1-1.394-2.575l1.734-5.8a2.08 2.08 0 0 1 2.582-1.391l7.168 2.14a31 31 0 0 1 3.086-5.003l-5.14-5.438a2.07 2.07 0 0 1 .085-2.926l4.402-4.156a2.08 2.08 0 0 1 2.93.086l5.14 5.438a30.7 30.7 0 0 1 5.173-2.793l-1.73-7.278a2.076 2.076 0 0 1 1.538-2.492l5.89-1.402c1.11-.262 2.231.43 2.497 1.539l1.73 7.281c1.961-.129 3.93-.074 5.875.168l2.145-7.172a2.08 2.08 0 0 1 2.582-1.39l5.8 1.73a2.08 2.08 0 0 1 1.395 2.574l-2.144 7.168a30.4 30.4 0 0 1 5.004 3.086l5.445-5.14a2.08 2.08 0 0 1 2.93.085l4.16 4.399a2.076 2.076 0 0 1-.086 2.926Zm-10.653 3.043c7.797 8.246 7.426 21.25-.828 29.04-8.254 7.792-21.27 7.421-29.066-.825-7.797-8.25-7.426-21.25.832-29.043 8.254-7.789 21.265-7.418 29.062.828m0 0"/><path fill="#ffc738" fill-rule="evenodd" d="M110.316 89.059a51.4 51.4 0 0 1 4.711 8.707l12.278-2.914a3.505 3.505 0 0 1 4.203 2.59l2.36 9.921a3.493 3.493 0 0 1-2.59 4.2l-12.286 2.917a52 52 0 0 1-.281 9.895l12.098 3.61c1.84.55 2.898 2.503 2.347 4.34l-2.922 9.773a3.5 3.5 0 0 1-4.347 2.343l-12.082-3.605a52 52 0 0 1-5.203 8.43l8.664 9.164a3.496 3.496 0 0 1-.141 4.933l-7.422 7a3.495 3.495 0 0 1-4.933-.14l-8.668-9.164a51.8 51.8 0 0 1-8.72 4.707l2.919 12.265a3.495 3.495 0 0 1-2.59 4.2l-9.93 2.359a3.507 3.507 0 0 1-4.207-2.59l-2.918-12.273a52.4 52.4 0 0 1-9.898-.282l-3.617 12.086a3.504 3.504 0 0 1-4.344 2.348l-9.781-2.922a3.5 3.5 0 0 1-2.348-4.34l3.61-12.078a51.5 51.5 0 0 1-8.434-5.195L26.672 168a3.504 3.504 0 0 1-4.938-.14l-7.007-7.415a3.496 3.496 0 0 1 .14-4.933l9.176-8.657a51.3 51.3 0 0 1-4.711-8.71l-12.277 2.914a3.497 3.497 0 0 1-4.203-2.586l-2.36-9.926a3.497 3.497 0 0 1 2.586-4.2l12.29-2.917a51.7 51.7 0 0 1 .28-9.89l-12.101-3.614a3.495 3.495 0 0 1-2.344-4.34l2.922-9.773a3.497 3.497 0 0 1 4.344-2.344l12.086 3.605a51.4 51.4 0 0 1 5.203-8.426l-8.664-9.168a3.494 3.494 0 0 1 .136-4.93l7.422-7.003a3.5 3.5 0 0 1 4.938.14l8.664 9.165a51.8 51.8 0 0 1 8.719-4.707l-2.914-12.262a3.5 3.5 0 0 1 2.59-4.203l9.93-2.36a3.505 3.505 0 0 1 4.202 2.59l2.922 12.274a52.4 52.4 0 0 1 9.899.285l3.613-12.09a3.5 3.5 0 0 1 4.347-2.344l9.778 2.918a3.494 3.494 0 0 1 2.347 4.34l-3.609 12.078a51.7 51.7 0 0 1 8.434 5.2l9.176-8.66a3.507 3.507 0 0 1 4.937.14l7.008 7.414a3.503 3.503 0 0 1-.14 4.933Zm-17.949 5.125c13.145 13.898 12.516 35.812-1.394 48.941s-35.844 12.504-48.985-1.395c-13.14-13.902-12.515-35.812 1.395-48.945 13.914-13.129 35.844-12.504 48.984 1.399M359.758 232.18a51.7 51.7 0 0 1 4.75 8.785l12.379-2.942a3.535 3.535 0 0 1 4.242 2.61l2.379 10.008a3.53 3.53 0 0 1-2.61 4.238l-12.39 2.941a53 53 0 0 1-.285 9.977l12.203 3.64a3.53 3.53 0 0 1 2.363 4.383l-2.945 9.852a3.533 3.533 0 0 1-4.383 2.367l-12.188-3.64a52 52 0 0 1-5.246 8.503l8.739 9.243a3.52 3.52 0 0 1-.145 4.972l-7.48 7.063a3.534 3.534 0 0 1-4.98-.14l-8.74-9.247a52.2 52.2 0 0 1-8.792 4.75l2.941 12.367a3.525 3.525 0 0 1-2.613 4.238l-10.016 2.38a3.53 3.53 0 0 1-4.238-2.61l-2.945-12.379a53 53 0 0 1-9.985-.285l-3.648 12.191a3.527 3.527 0 0 1-4.379 2.364l-9.867-2.942a3.53 3.53 0 0 1-2.363-4.379l3.64-12.18a52.3 52.3 0 0 1-8.508-5.242l-9.25 8.73a3.54 3.54 0 0 1-4.98-.14l-7.07-7.476a3.53 3.53 0 0 1 .144-4.977l9.25-8.734a52.4 52.4 0 0 1-4.75-8.781l-12.379 2.937a3.53 3.53 0 0 1-4.242-2.61l-2.379-10.007a3.53 3.53 0 0 1 2.613-4.238l12.387-2.942a52.6 52.6 0 0 1 .285-9.976l-12.203-3.641a3.527 3.527 0 0 1-2.363-4.379l2.945-9.855a3.53 3.53 0 0 1 4.383-2.364l12.188 3.637a52.3 52.3 0 0 1 5.246-8.504l-8.739-9.242a3.525 3.525 0 0 1 .145-4.973l7.48-7.066a3.54 3.54 0 0 1 4.98.144l8.74 9.243a52 52 0 0 1 8.792-4.747l-2.941-12.367a3.53 3.53 0 0 1 2.613-4.238l10.016-2.379a3.537 3.537 0 0 1 4.242 2.61l2.941 12.378a53 53 0 0 1 9.985.29l3.644-12.196a3.534 3.534 0 0 1 4.383-2.363l9.863 2.945a3.527 3.527 0 0 1 2.371 4.38l-3.644 12.179a52 52 0 0 1 8.508 5.242l9.253-8.734a3.533 3.533 0 0 1 4.977.14l7.07 7.48a3.53 3.53 0 0 1-.14 4.973Zm-18.102 5.168c13.254 14.02 12.621 36.117-1.41 49.359s-36.148 12.613-49.398-1.406c-13.254-14.02-12.625-36.117 1.406-49.36 14.031-13.242 36.148-12.613 49.402 1.407m0 0"/><g clip-path="url(#a)"><path fill="#f5874f" fill-rule="evenodd" d="M209.813 277.148a30 30 0 0 1 2.734 5.059l7.129-1.695a2.035 2.035 0 0 1 2.441 1.504l1.371 5.761a2.03 2.03 0 0 1-1.504 2.442l-7.136 1.691c.129 1.918.074 3.84-.16 5.746l7.023 2.098a2.03 2.03 0 0 1 1.363 2.52l-1.695 5.675a2.037 2.037 0 0 1-2.527 1.36l-7.016-2.094a30 30 0 0 1-3.02 4.894l5.032 5.32c.765.813.73 2.102-.082 2.868l-4.309 4.066a2.037 2.037 0 0 1-2.867-.082l-5.031-5.324a30 30 0 0 1-5.063 2.734l1.695 7.122a2.035 2.035 0 0 1-1.504 2.44l-5.769 1.368a2.03 2.03 0 0 1-2.441-1.504l-1.696-7.125c-1.914.125-3.844.07-5.75-.164l-2.097 7.02a2.04 2.04 0 0 1-2.524 1.363l-5.68-1.695a2.034 2.034 0 0 1-1.359-2.524l2.094-7.012a30.4 30.4 0 0 1-4.899-3.015l-5.324 5.023a2.033 2.033 0 0 1-2.867-.082l-4.07-4.304a2.03 2.03 0 0 1 .082-2.864l5.328-5.027a30 30 0 0 1-2.735-5.059l-7.132 1.696a2.033 2.033 0 0 1-2.438-1.508l-1.37-5.758a2.03 2.03 0 0 1 1.503-2.441l7.133-1.692a30 30 0 0 1 .164-5.746l-7.028-2.098a2.03 2.03 0 0 1-1.359-2.52l1.695-5.675a2.04 2.04 0 0 1 2.524-1.363l7.016 2.098a30.2 30.2 0 0 1 3.023-4.895l-5.031-5.32a2.033 2.033 0 0 1 .082-2.868l4.308-4.066a2.03 2.03 0 0 1 2.864.082l5.035 5.324a30 30 0 0 1 5.058-2.734l-1.691-7.121a2.03 2.03 0 0 1 1.504-2.442l5.765-1.367a2.033 2.033 0 0 1 2.442 1.5l1.695 7.13a30.7 30.7 0 0 1 5.75.163l2.098-7.02a2.034 2.034 0 0 1 2.523-1.359l5.68 1.692a2.033 2.033 0 0 1 1.363 2.523l-2.097 7.012a30 30 0 0 1 4.898 3.02l5.328-5.028a2.033 2.033 0 0 1 2.867.082l4.07 4.305a2.03 2.03 0 0 1-.081 2.863Zm-10.422 2.977c7.629 8.07 7.265 20.793-.813 28.418s-20.812 7.262-28.441-.809c-7.633-8.07-7.27-20.793.808-28.418s20.813-7.261 28.446.809m0 0"/></g></svg>