<svg xmlns="http://www.w3.org/2000/svg" width="512" height="512" version="1.0" viewBox="0 0 384 384"><defs><clipPath id="d"><path d="M6 .078h8V3H6Zm0 0"/></clipPath><clipPath id="e"><path d="M17 .078h14V3H17Zm0 0"/></clipPath><clipPath id="f"><path d="M49 .078h13V3H49Zm0 0"/></clipPath><clipPath id="g"><path d="M68 .078h7V3h-7Zm0 0"/></clipPath><clipPath id="h"><path d="M1 6h79.52v2H1Zm0 0"/></clipPath><clipPath id="i"><path d="M1 17h79.52v2H1Zm0 0"/></clipPath><clipPath id="j"><path d="M1 29h79.52v1H1Zm0 0"/></clipPath><clipPath id="k"><path d="M1 40h79.52v1H1Zm0 0"/></clipPath><clipPath id="l"><path d="M1 51h79.52v1H1Zm0 0"/></clipPath><clipPath id="m"><path d="M1 62h79.52v1H1Zm0 0"/></clipPath><clipPath id="c"><path d="M0 0h81v64H0z"/></clipPath><clipPath id="o"><path d="M0 0h29v28H0z"/></clipPath><clipPath id="p"><path d="M222 47.52h11V58h-11Zm0 0"/></clipPath><mask id="b"><g filter="url(#a)"><path fill-opacity=".5" d="M-38.4-38.4h460.8v460.8H-38.4z"/></g></mask><mask id="n"><g filter="url(#a)"><path fill-opacity=".3" d="M-38.4-38.4h460.8v460.8H-38.4z"/></g></mask><filter id="a" width="100%" height="100%" x="0%" y="0%"><feColorMatrix color-interpolation-filters="sRGB" values="0 0 0 0 1 0 0 0 0 1 0 0 0 0 1 0 0 0 1 0"/></filter></defs><path fill="#dae4fe" d="M12.54 271.484c-2.497 22.13 3.85 47.95 12.605 63.7.613 1.105 287.437-2.461 287.437-2.461s19.035-22.832 21.613-64.02c2.582-41.187-50.757-35.316-54.195-64.246-3.45-28.926 22.371-52.828 21.074-86.176-1.797-46.394-58.957-49.277-88.89-42.36-23.692 5.474-48.907 15.63-73.801 10.49-17.617-3.634-33.067-15.04-50.48-19.688-6.876-1.84-13.454-2.305-19.52-1.57q-3.03.375-5.883 1.132c-14.957 4.266-28.082 11-37.707 24.461-4.305 6.313-7.676 13.348-9.957 20.7a80 80 0 0 0-1.918 7.433c-8.25 27.64 10.121 67.793 16.246 93.758 1.754 5.765 1.754 12.504.191 18.476a39.5 39.5 0 0 1-3.597 8.989c-1.606 2.91-3.637 5.718-6.14 8.402-1.34 2.273-2.473 4.691-3.423 7.195-1.886 5.008-3.05 10.395-3.656 15.785M177.957 57.348h-41.05a4.24 4.24 0 0 1-4.235-4.23 4.243 4.243 0 0 1 4.234-4.235h41.051a4.24 4.24 0 0 1 4.234 4.234 4.24 4.24 0 0 1-4.234 4.23m-41.05-7.809a3.59 3.59 0 0 0-3.579 3.578 3.584 3.584 0 0 0 3.578 3.574h41.051a3.58 3.58 0 0 0 3.578-3.574 3.585 3.585 0 0 0-3.578-3.578Zm0 0"/><path fill="#dae4fe" d="M139.785 53.117q-.002.492-.191.95a2.45 2.45 0 0 1-.54.808q-.35.345-.808.54a2.5 2.5 0 0 1-.953.187 2.48 2.48 0 0 1-2.297-1.536 2.5 2.5 0 0 1-.191-.949q.002-.497.191-.953.188-.457.54-.809.35-.345.808-.539.456-.187.949-.187a2.48 2.48 0 0 1 2.3 1.535q.19.456.192.953M177.957 71.23h-41.05a4.24 4.24 0 0 1-4.235-4.23 4.24 4.24 0 0 1 4.234-4.23h41.051a4.237 4.237 0 0 1 4.234 4.23 4.237 4.237 0 0 1-4.234 4.23m-41.05-7.804A3.584 3.584 0 0 0 133.327 67a3.584 3.584 0 0 0 3.578 3.574h41.051A3.58 3.58 0 0 0 181.535 67a3.58 3.58 0 0 0-3.578-3.574Zm0 0"/><path fill="#dd4e6a" d="M139.785 67a2.5 2.5 0 0 1-.73 1.758 2.45 2.45 0 0 1-.809.539 2.4 2.4 0 0 1-.953.191 2.4 2.4 0 0 1-.95-.191 2.45 2.45 0 0 1-.808-.54 2.501 2.501 0 0 1-.73-1.758 2.5 2.5 0 0 1 .73-1.757q.352-.351.809-.539.456-.19.949-.191.497.002.953.191.457.188.809.54.351.35.539.804.19.46.191.953m0 0"/><path fill="#4b6fdd" d="m64.29 318.223-.235-.036c3.265-20.816-2.852-38.753-8.547-50.132-6.176-12.34-13.227-19.844-13.297-19.922l.172-.164c.07.078 7.137 7.601 13.336 19.965 5.718 11.414 11.843 29.41 8.57 50.289m0 0"/><path fill="#4b6fdd" d="m58.129 273.012-.234.043c-1.305-7.176 2.601-15.914 2.644-16l.215.093c-.043.094-3.922 8.766-2.625 15.864M64.809 296.836l-.235-.035c.016-.121 1.867-12.453 6.703-19.293l.2.14c-4.805 6.786-6.653 19.067-6.668 19.188m0 0"/><path fill="#4b6fdd" d="M67.684 285.48h-.243c-.043-5.136-2.261-10.07-2.289-10.113l.215-.094c.035.051 2.274 5.024 2.317 10.207M66.18 290.754l-.188-.137c.008-.015 1.184-1.64 2.973-3.367 1.648-1.598 4.18-3.625 6.851-4.18l.051.235c-5.027 1.035-9.644 7.39-9.687 7.449M67.332 244.742c-7.383-1.238-7.234 13.39-7.234 13.39s14.613-12.155 7.234-13.39m-1.437.766c-.188.156-.415.398-.7.676a9.5 9.5 0 0 0-.87 1.027c-.305.387-.59.82-.856 1.258-.13.226-.27.449-.383.676-.121.234-.23.457-.344.671-.094.227-.199.442-.3.649-.098.207-.176.406-.255.597-.152.372-.273.688-.363.907a8 8 0 0 0-.152.351v-.379c.023-.242-.012-.593.086-1 .043-.199.066-.433.12-.668q.09-.346.208-.722c.086-.25.2-.5.3-.754.122-.25.262-.492.391-.742.309-.473.637-.942 1.02-1.313.363-.387.777-.672 1.113-.906.348-.242.684-.363.906-.457.211-.07.348-.102.364-.102a2 2 0 0 0-.285.23M49.055 242.027c-7 2.625.457 15.215.457 15.215s6.55-17.84-.457-15.215m-.856 1.391c-.086.227-.164.555-.27.934-.1.378-.179.835-.23 1.32a14 14 0 0 0-.113 1.52c0 .261-.008.519.008.777.02.261.027.511.043.761.027.243.043.485.062.708.016.226.051.44.086.64.05.395.102.734.145.965.027.242.047.379.047.379s-.07-.117-.192-.328c-.094-.215-.305-.508-.433-.906-.059-.196-.157-.407-.223-.637a9 9 0 0 1-.184-.735c-.05-.257-.078-.527-.11-.804-.019-.274-.026-.559-.034-.836.035-.563.086-1.133.222-1.64.114-.52.336-.97.512-1.349.18-.378.406-.656.55-.855.15-.164.243-.258.263-.277-.035.035-.086.164-.149.363M48.063 255.473s-12.47-7.668-15.22-.723c-2.745 6.95 15.22.723 15.22.723m-14.165-1.442c.02-.015.114-.113.278-.258.199-.14.476-.363.863-.535.379-.164.84-.383 1.356-.484.52-.129 1.082-.172 1.652-.2.285.016.562.028.836.051.277.043.547.07.804.13.25.062.5.132.727.199.223.078.441.175.629.234.398.129.684.344.902.45.207.128.328.198.328.198s-.14-.02-.382-.05a14 14 0 0 0-.97-.157c-.194-.035-.413-.07-.636-.097-.234-.016-.469-.043-.71-.067-.25-.02-.5-.035-.759-.054-.261-.016-.52-.016-.777-.016-.52 0-1.039.027-1.523.086-.485.05-.942.121-1.328.215-.383.097-.72.176-.942.254-.191.043-.32.093-.348.101M55.89 268.54s-9.558-11.08-14.285-5.286c-4.726 5.793 14.286 5.285 14.286 5.285m-13.066-5.657c.02-.02.14-.078.348-.164.23-.078.558-.2.984-.25.414-.043.914-.106 1.442-.055.527.027 1.082.164 1.632.313.262.105.528.191.79.3.25.121.5.235.722.364.227.129.442.277.633.406.191.14.363.293.535.414.336.242.543.535.727.7.156.183.25.284.25.284l-.344-.164c-.211-.11-.512-.265-.875-.437a9 9 0 0 0-.578-.285q-.323-.134-.656-.286-.354-.145-.7-.285c-.242-.086-.484-.164-.734-.25a15 15 0 0 0-1.48-.383 11 11 0 0 0-1.329-.199c-.398-.023-.734-.05-.968-.043-.235 0-.371.02-.399.02M62.406 287.648s-9.558-11.078-14.285-5.285c-4.726 5.793 14.285 5.285 14.285 5.285m-13.066-5.656c.015-.02.137-.078.347-.164.231-.078.56-.2.985-.25.414-.043.914-.105 1.441-.055.528.028 1.082.164 1.633.313.262.101.527.191.785.3.254.122.504.235.727.364.226.129.441.277.633.406.187.137.363.293.535.414.336.243.543.535.726.7.157.183.25.285.25.285s-.12-.059-.347-.164a21 21 0 0 0-.871-.442q-.268-.14-.579-.285c-.218-.086-.433-.18-.656-.281q-.352-.146-.703-.285c-.238-.09-.48-.164-.734-.254-.492-.153-1-.281-1.477-.38a11 11 0 0 0-1.328-.198c-.398-.024-.734-.051-.969-.043-.234.011-.37.02-.398.02m0 0"/><path fill="#4b6fdd" d="M63.84 262.477c-6.672 3.375 2.11 15.078 2.11 15.078s4.562-18.453-2.11-15.078m-.711 1.468c-.059.23-.102.57-.164.957-.059.391-.086.856-.094 1.34a14 14 0 0 0 .05 1.528c.028.257.056.52.087.77.047.25.09.5.12.75.056.241.099.476.142.698.042.227.101.434.156.63.094.39.18.718.25.952.05.243.086.371.086.371s-.078-.113-.227-.304c-.12-.207-.36-.473-.527-.856-.086-.187-.196-.386-.293-.601-.086-.227-.18-.457-.258-.711-.078-.25-.137-.516-.2-.785-.05-.266-.085-.551-.128-.829-.027-.562-.043-1.128.043-1.656.058-.527.223-.996.363-1.39.137-.399.336-.7.457-.907.13-.183.215-.285.235-.304-.02.02-.051.148-.098.347M81.207 267.484c-6.758-3.195-10.621 10.914-10.621 10.914s17.387-7.718 10.621-10.914m-1.598.344c-.226.098-.511.27-.855.461-.348.188-.727.457-1.113.75-.399.285-.79.629-1.176.977-.184.18-.383.351-.555.543-.172.191-.344.378-.508.562-.156.188-.312.371-.468.535q-.218.26-.399.508a19 19 0 0 0-.594.777c-.156.192-.242.293-.242.293s.035-.129.102-.363c.086-.223.156-.566.355-.941.094-.18.192-.395.301-.602.121-.207.254-.426.398-.64.149-.215.32-.422.504-.649.18-.207.38-.406.579-.613.43-.371.87-.723 1.34-.985.449-.273.921-.43 1.32-.566.398-.14.761-.164.992-.2.219-.01.355-.01.383 0-.055.009-.172.06-.364.153M89.14 279.105c-4.39-6.05-14.57 4.465-14.57 4.465s18.957 1.59 14.57-4.465m-1.566-.464c-.242-.028-.578-.008-.976-.008-.395 0-.856.05-1.336.12a13 13 0 0 0-1.496.294c-.25.07-.5.129-.743.207-.242.078-.484.164-.718.242-.227.094-.45.172-.676.25-.215.078-.414.172-.594.25-.37.156-.683.293-.898.399a9 9 0 0 0-.356.136s.094-.094.27-.265c.18-.157.414-.434.758-.657.175-.113.355-.261.554-.39.207-.121.422-.25.657-.371.234-.121.492-.215.742-.328.261-.094.535-.172.804-.258.555-.121 1.114-.215 1.641-.215.527-.027 1.02.066 1.434.137.418.078.746.222.968.308.2.098.32.164.336.184a2.3 2.3 0 0 0-.37-.035M74.563 293.82c-7.043-2.511-9.481 11.918-9.481 11.918s16.523-9.406 9.48-11.918m-1.555.5c-.207.121-.485.32-.805.547a9 9 0 0 0-1.035.852c-.363.328-.727.703-1.074 1.09-.164.199-.336.398-.492.597-.157.207-.309.403-.457.602-.137.207-.278.398-.415.578q-.19.285-.347.547c-.215.336-.395.629-.516.828-.14.207-.219.32-.219.32s.028-.14.07-.37c.071-.235.094-.59.259-.97.078-.191.148-.414.242-.628.097-.22.207-.45.328-.676.133-.23.277-.457.433-.692.165-.222.348-.437.52-.664.387-.406.793-.812 1.234-1.113.422-.32.883-.527 1.262-.7.39-.171.734-.241.977-.292.215-.035.355-.043.379-.043-.051.015-.172.078-.344.187M65.223 303.234s-3.043-14.308-9.973-11.504c-6.937 2.81 9.973 11.504 9.973 11.504M56.496 292c.024 0 .164 0 .379.023.242.043.598.098.984.25.391.164.848.348 1.29.649.449.277.87.664 1.277 1.055.183.214.37.421.543.64.164.223.32.438.46.672.13.223.25.45.364.664.102.215.18.434.266.621.183.383.226.735.293.961.054.23.078.371.078.371s-.078-.113-.223-.312c-.129-.2-.32-.485-.555-.813-.113-.164-.234-.344-.37-.523a18 18 0 0 1-.442-.563c-.156-.191-.32-.39-.485-.586-.164-.191-.343-.382-.515-.57a14 14 0 0 0-1.117-1.047c-.371-.32-.735-.594-1.07-.812-.337-.207-.614-.395-.829-.508a2 2 0 0 0-.328-.172M34.71 236.719c-4.448 6.008 8.65 12.527 8.65 12.527s-4.192-18.527-8.65-12.527m.036 1.633c.05.23.164.55.285.93.121.382.301.804.52 1.245.207.442.457.899.734 1.336.137.219.274.442.422.649q.224.313.45.613.232.287.44.563c.137.18.286.335.423.492.261.3.484.562.648.734l.242.293-.336-.172c-.199-.129-.535-.262-.855-.527-.164-.13-.356-.258-.535-.414a10 10 0 0 1-.555-.512q-.268-.283-.535-.613c-.164-.215-.32-.457-.485-.68-.277-.492-.543-.992-.707-1.504-.183-.5-.242-.992-.304-1.406-.051-.414-.016-.777 0-1.02.035-.214.062-.355.07-.37 0 .034.016.163.078.363m0 0"/><path fill="#192351" d="M59.086 330.734c-10.324-11.82 1.71-19.203 1.71-19.203l-.007-1.719 8.563-.027.007 1.719s12.09 7.305 1.844 19.195Zm0 0"/><path fill="#dae4fe" d="M119.617 213.93c-.02.996 0 16.062.043 17.074H25.043c-.055-1.012-.063-16.078-.055-17.074.176-19.645 0-39.297 0-58.942v-41.836l3.633-1.957a4.61 4.61 0 0 1 5.555.93l.957 1.027.012.012c1.82 1.957 4.94 1.957 6.753-.012h.012a4.59 4.59 0 0 1 6.746 0h.008a4.595 4.595 0 0 0 6.75 0 4.61 4.61 0 0 1 6.766 0 4.57 4.57 0 0 0 3.379 1.477c1.234 0 2.46-.492 3.37-1.477a4.603 4.603 0 0 1 6.758 0 4.57 4.57 0 0 0 3.376 1.477 4.58 4.58 0 0 0 3.378-1.477 4.597 4.597 0 0 1 6.75 0 4.6 4.6 0 0 0 3.38 1.477 4.6 4.6 0 0 0 3.386-1.477 4.57 4.57 0 0 1 3.371-1.476c1.234 0 2.469.492 3.379 1.476a4.6 4.6 0 0 0 3.379 1.477 4.58 4.58 0 0 0 3.375-1.477l.953-1.027a4.645 4.645 0 0 1 5.574-.93l3.617 1.957v41.836c.012 19.645.176 39.297.012 58.942m0 0"/><path fill="#192351" d="M120.11 231.434H24.628l-.02-.414c-.05-1.012-.058-16.215-.058-17.098.12-13.098.078-26.414.035-39.29-.02-6.554-.035-13.097-.035-19.644v-42.093l3.851-2.082c2.024-1.079 4.528-.665 6.075 1.019l.96 1.027a4.15 4.15 0 0 0 3.067 1.34h.008a4.11 4.11 0 0 0 3.058-1.34l.14-.136a5.05 5.05 0 0 1 3.56-1.477c1.332 0 2.617.535 3.562 1.477h.008l.137.136a4.12 4.12 0 0 0 3.058 1.34 4.11 4.11 0 0 0 3.059-1.34 5 5 0 0 1 3.699-1.613 5 5 0 0 1 3.707 1.613 4.13 4.13 0 0 0 3.059 1.34 4.13 4.13 0 0 0 3.058-1.34 5 5 0 0 1 3.7-1.613c1.417 0 2.73.57 3.699 1.613a4.11 4.11 0 0 0 3.058 1.34 4.15 4.15 0 0 0 3.067-1.34 5.02 5.02 0 0 1 3.699-1.613c1.398 0 2.738.586 3.687 1.613a4.15 4.15 0 0 0 3.059 1.34 4.16 4.16 0 0 0 3.07-1.34 5.01 5.01 0 0 1 3.688-1.613c1.426 0 2.738.578 3.699 1.613a4.14 4.14 0 0 0 3.059 1.34 4.15 4.15 0 0 0 3.058-1.34l.95-1.027a5.07 5.07 0 0 1 6.093-1.02l3.844 2.083v42.093c0 6.547.02 13.102.035 19.645.035 12.883.07 26.199-.035 39.297-.008.89 0 16.02.043 17.047Zm-94.653-.864h93.754c-.035-2.746-.043-15.793-.035-16.64.101-13.098.07-26.414.035-39.29a6583 6583 0 0 1-.035-19.64v-41.578l-3.399-1.832a4.18 4.18 0 0 0-5.043.847l-.953 1.028a5.04 5.04 0 0 1-3.695 1.613c-1.418 0-2.73-.57-3.7-1.613a4.12 4.12 0 0 0-3.058-1.34 4.11 4.11 0 0 0-3.058 1.34 5 5 0 0 1-3.707 1.613c-1.418 0-2.731-.57-3.7-1.613a4.12 4.12 0 0 0-3.058-1.34c-1.16 0-2.282.484-3.059 1.34a5 5 0 0 1-3.7 1.613 5 5 0 0 1-3.698-1.613 4.14 4.14 0 0 0-3.059-1.34 4.12 4.12 0 0 0-3.059 1.34 5.03 5.03 0 0 1-3.687 1.613 5.02 5.02 0 0 1-3.7-1.613 4.16 4.16 0 0 0-3.066-1.34 4.11 4.11 0 0 0-3.058 1.34 5.05 5.05 0 0 1-3.692 1.613 5.05 5.05 0 0 1-3.558-1.476h-.012l-.137-.137a4.11 4.11 0 0 0-3.058-1.34 4.11 4.11 0 0 0-3.059 1.34l-.14.137a5 5 0 0 1-3.551 1.476h-.008a5.08 5.08 0 0 1-3.7-1.605l-.964-1.035a4.2 4.2 0 0 0-5.04-.848l-3.394 1.832V155c0 6.543.016 13.098.035 19.64.032 12.887.075 26.2-.035 39.31 0 .8.016 13.968.051 16.62m0 0"/><g mask="url(#b)"><g clip-path="url(#c)" transform="translate(33 142)"><g clip-path="url(#d)"><path fill="#4b6fdd" d="M6.445.988h7.356v1.856H6.445Zm0 0"/></g><g clip-path="url(#e)"><path fill="#4b6fdd" d="M17.973.988h12.105v1.856H17.973Zm0 0"/></g><g clip-path="url(#f)"><path fill="#4b6fdd" d="M49.684.988h12.105v1.856H49.684Zm0 0"/></g><g clip-path="url(#g)"><path fill="#4b6fdd" d="M72.168 2.836h-4.035V.988h6.664v1.848z"/></g><path fill="#4b6fdd" d="M6.445 12.21h7.356v1.86H6.445ZM17.973 12.21h12.105v1.86H17.973ZM49.684 12.21h12.105v1.86H49.684ZM72.168 14.059h-4.035V12.21h6.664v1.848z"/><g clip-path="url(#h)"><path fill="#4b6fdd" d="M1.348 6.746H80.23v.684H1.348Zm0 0"/></g><g clip-path="url(#i)"><path fill="#4b6fdd" d="M1.348 17.723H80.23v.68H1.348Zm0 0"/></g><path fill="#4b6fdd" d="M6.445 23.352h7.356v1.855H6.445ZM17.973 23.352h12.105v1.855H17.973ZM49.684 23.352h12.105v1.855H49.684ZM72.168 25.2h-4.035v-1.848h6.664v1.847zM6.445 34.578h7.356v1.856H6.445ZM17.973 34.578h12.105v1.856H17.973ZM49.684 34.578h12.105v1.856H49.684ZM72.168 36.434h-4.035v-1.856h6.664v1.856z"/><g clip-path="url(#j)"><path fill="#4b6fdd" d="M1.348 29.11H80.23v.683H1.348Zm0 0"/></g><g clip-path="url(#k)"><path fill="#4b6fdd" d="M1.348 40.094H80.23v.683H1.348Zm0 0"/></g><path fill="#4b6fdd" d="M6.445 45.371h7.356v1.856H6.445ZM17.973 45.371h12.105v1.856H17.973ZM49.684 45.371h12.105v1.856H49.684ZM72.168 47.227h-4.035V45.37h6.664v1.856zM6.445 56.605h7.356v1.856H6.445ZM17.973 56.605h12.105v1.856H17.973ZM49.684 56.605h12.105v1.856H49.684ZM72.168 58.453h-4.035v-1.848h6.664v1.848z"/><g clip-path="url(#l)"><path fill="#4b6fdd" d="M1.348 51.137H80.23v.683H1.348Zm0 0"/></g><g clip-path="url(#m)"><path fill="#4b6fdd" d="M1.348 62.113H80.23v.684H1.348Zm0 0"/></g></g></g><path fill="#192351" d="m96.707 292.777 115.695-16.91a6.714 6.714 0 0 0 5.676-7.613L191.473 86.43a6.72 6.72 0 0 0-7.621-5.676L68.16 97.664a6.71 6.71 0 0 0-5.676 7.613l26.602 181.825c.547 3.671 3.96 6.218 7.621 5.675m0 0"/><path fill="#192351" d="m69.887 92.844-6.176 7.511 7.93 1.106ZM222.563 266.172l-6.223 7.652-3.367-7.887Zm0 0"/><path fill="#4b6fdd" d="m103.086 284.996 115.691-16.906a6.713 6.713 0 0 0 5.676-7.617L197.852 78.648a6.72 6.72 0 0 0-7.622-5.671L74.527 89.883a6.716 6.716 0 0 0-5.675 7.617l26.605 181.824a6.73 6.73 0 0 0 7.629 5.672m0 0"/><path fill="#dae4fe" d="m214.594 248.234-113.082 16.508L77.586 101.06l113.086-16.504ZM163.469 265.543q0 .404-.082.809-.077.397-.235.777a4.2 4.2 0 0 1-.898 1.344 4.087 4.087 0 0 1-1.348.898 3.8 3.8 0 0 1-.777.234 4 4 0 0 1-1.617 0 3.8 3.8 0 0 1-.778-.234 4.1 4.1 0 0 1-1.347-.898 4.2 4.2 0 0 1-.899-1.344 4 4 0 0 1-.234-.777 4.1 4.1 0 0 1 0-1.618 3.8 3.8 0 0 1 .234-.777 4.1 4.1 0 0 1 .899-1.348c.195-.191.402-.363.629-.515q.338-.225.718-.383.374-.153.778-.234.398-.08.808-.079.41-.002.809.079.404.081.777.234.38.159.719.383.341.228.629.515a4.087 4.087 0 0 1 .898 1.348 3.8 3.8 0 0 1 .235.777 4 4 0 0 1 .082.809M148.707 85.586l-30.797 4.496-.12-.828 30.796-4.496Zm0 0"/><path fill="#192351" d="m142.574 220.414 3.223 21.84-5.14.758-10.587-12.2 1.989 13.47-5.141.761-3.223-21.84 5.14-.758 10.595 12.27-1.996-13.531ZM146.309 219.863l13.738-2.027.629 4.266-8.598 1.265.684 4.606 6.437-.95.613 4.133-6.437.953 1.305 8.832-5.14.758ZM172.453 215.754c5.024-.742 9.246 1.621 11.149 6.172l-5.653.84c-1.148-1.739-2.875-2.438-4.828-2.153-3.156.469-4.96 3.215-4.39 7.075.57 3.859 3.093 5.964 6.246 5.5 1.953-.286 3.414-1.461 4.011-3.454l5.649-.84c-.5 4.907-3.86 8.36-8.883 9.102-6.219.914-11.285-3.004-12.25-9.543-.988-6.535 2.719-11.785 8.95-12.7m0 0"/><path fill="#4b6fdd" d="M137.355 194.035c-.257.02-.535-.05-.77-.207-4.398-2.969-9.538-4.344-14.862-3.973-5.32.372-10.211 2.446-14.16 5.997-.5.445-1.282.414-1.731-.098-.45-.5-.414-1.277.098-1.727 4.355-3.918 9.761-6.207 15.629-6.613 5.867-.406 11.546 1.106 16.402 4.387a1.221 1.221 0 0 1-.606 2.234m0 0"/><path fill="#4b6fdd" d="M134.098 199.063c-.27.015-.536-.051-.778-.208a17.52 17.52 0 0 0-11.18-3.023 17.47 17.47 0 0 0-10.656 4.543 1.22 1.22 0 0 1-1.726-.086c-.461-.5-.414-1.277.086-1.726 3.37-3.067 7.57-4.856 12.133-5.172 4.558-.32 8.968.87 12.734 3.433.562.383.7 1.14.32 1.703-.226.328-.57.508-.933.536m0 0"/><path fill="#4b6fdd" d="M114.906 205.52a1.21 1.21 0 0 1-.984-.387 1.235 1.235 0 0 1 .058-1.735 13.8 13.8 0 0 1 8.426-3.664 13.83 13.83 0 0 1 8.856 2.461c.554.39.691 1.149.304 1.711a1.23 1.23 0 0 1-1.71.301 11.34 11.34 0 0 0-7.278-2.02 11.37 11.37 0 0 0-6.918 3.004c-.219.2-.484.305-.754.329M126.191 208.594q-.001.632-.242 1.21-.239.58-.683 1.024a3.14 3.14 0 0 1-2.239.926q-.627.001-1.207-.238-.583-.241-1.027-.688a3.128 3.128 0 0 1-.926-2.234q-.001-.627.238-1.207c.165-.387.391-.73.688-1.028a3.1 3.1 0 0 1 1.027-.683 3.13 3.13 0 0 1 2.418 0 3.13 3.13 0 0 1 1.711 1.71q.241.58.242 1.208m0 0"/><path fill="#192351" d="M315.027 328.352s3.922 3.507 7.672-1.34c3.754-4.844 5.746-8.653 6.828-11.68 1.09-3.031 1.184-5.062 3.172-7.723 1.988-2.656 4.95-4.808 4.406-7.105-.449-1.89-4.312-2.824-4.312-2.824l-9.59 15.535Zm0 0"/><path fill="#db8e63" d="m322.668 293.398-8.227-2.937-3.847 13.816 5.203 1.805 5.332-2.262 3.965-6.449Zm0 0"/><path fill="#4b6fdd" d="M315.797 306.082s.543 8.867.148 12.824c-.398 3.953-3.882 7.227-.925 9.438 2.953 2.219 7.585-6.735 10.246-12.012 2.656-5.277 2.898-10 5.296-12.133 2.403-2.133 2.985-5.808 2.231-6.535-.75-.726-8.996-4.48-10.137-4.266 0 0 1.14 1.579-1.797 6.579-2.93 5-5.062 6.105-5.062 6.105m0 0"/><path fill="#dae4fe" d="M318.563 315.754v.101c0 .2-.165.356-.364.348l-2.168-.05a.366.366 0 0 1-.355-.364v-.105c0-.2.164-.352.363-.344l2.168.05a.36.36 0 0 1 .356.364M318.45 313.75v.105a.346.346 0 0 1-.364.344l-2.168-.05a.363.363 0 0 1-.356-.364v-.105c0-.196.165-.352.364-.344l2.168.05c.199 0 .355.165.355.364M318.414 311.469v.105c0 .2-.164.356-.363.344l-2.168-.05a.363.363 0 0 1-.356-.364v-.102c0-.199.168-.355.364-.347l2.171.054c.196 0 .352.164.352.36M318.379 309.219v.101a.34.34 0 0 1-.36.344l-2.171-.05a.36.36 0 0 1-.352-.364v-.102c0-.199.164-.355.363-.347l2.168.054c.2.008.352.172.352.364m0 0"/><path fill="#192351" d="M218.484 323.809s-.898 5.183 5.203 5.796c6.098.614 10.383.293 13.532-.398 3.152-.684 4.914-1.676 8.234-1.39 3.317.285 6.703 1.656 8.371-.028 1.367-1.379.121-5.152.121-5.152l-18.265.086Zm0 0"/><path fill="#db8e63" d="m252.2 311.79.448-8.134-15.18.45.329 8.574 3.523 4.558 7.934-.449Zm0 0"/><path fill="#4b6fdd" d="M237.797 312.68s-7.242 5.156-10.809 6.918c-3.562 1.75-8.191.535-8.504 4.21-.32 3.68 9.739 2.868 15.621 2.333 5.887-.543 10.016-2.84 13.102-1.926 3.082.918 6.504-.55 6.73-1.57.223-1.02-.96-10-1.738-10.856 0 0-.734 1.813-6.539 1.961-5.797.156-7.863-1.07-7.863-1.07m0 0"/><path fill="#dae4fe" d="m231.047 320.148-.086.051a.35.35 0 0 1-.484-.12l-1.106-1.872a.36.36 0 0 1 .121-.492l.086-.055a.35.35 0 0 1 .484.121l1.106 1.875a.36.36 0 0 1-.121.492M232.691 318.984l-.09.051a.35.35 0 0 1-.48-.12l-1.11-1.876a.364.364 0 0 1 .122-.492l.09-.05a.344.344 0 0 1 .48.12l1.11 1.875a.364.364 0 0 1-.122.492M234.61 317.75l-.087.05a.35.35 0 0 1-.484-.12l-1.11-1.875a.364.364 0 0 1 .122-.493l.09-.05a.344.344 0 0 1 .48.12l1.11 1.876a.36.36 0 0 1-.122.492M236.5 316.531l-.086.051a.35.35 0 0 1-.484-.121l-1.106-1.875a.36.36 0 0 1 .121-.492l.086-.051a.35.35 0 0 1 .485.121l1.105 1.875a.36.36 0 0 1-.121.492m0 0"/><path fill="#dd4e6a" d="M273.406 222.367s-34.789 8.281-39.472 20.207c-4.684 11.922 1.59 39.192 1.14 65.313 0 0 11.727 1.746 18.828-.215L256.773 260s10.98-1.281 19.094-4.172c0 0-14.531 26.527-12.57 38.906 1.32 8.336 49.398 13.895 49.398 13.895l6.04-16.906s-25.872-8.012-26.926-8.618c0 0 19.64-25.964 23.27-34.574 3.632-8.61 2.722-22.347 2.722-22.347Zm0 0"/><path fill="#192351" d="m275.938 255.973-.13-.309 16.52-6.812.129.32Zm0 0"/><path fill="#db8e63" d="m270.863 146.848 12.239 17.449-8.477 12.02-10.328-25.844ZM289.727 151.492l-.829-9.336s-5.117 3.094-7.199 1.547c-2.074-1.547-2.617-7.789-2.816-7.969-.2-.183-1.39.907-1.813.657-.425-.25.38-5.57.188-8.309-.188-2.734-2.817-10.621 5.781-12.469s16.09-2.898 18.277 2.418c2.184 5.32-.043 11.219.68 14.922.727 3.703 3.215 15.258 3.215 15.258l-8.7 6.613Zm0 0"/><path fill="#192351" d="M302.395 133.582c.457 1.16-4.407 1.313-4.942-.644-.543-1.961-2.402-8.543-5.062-9.786-2.672-1.242-3.7 1.02-3.508 2.926.187 1.91 1.597 4.777 1.597 4.777l-1.27.442s-1.6-3.8-4.07-3.758c-1.226.016-1.148-.715-1.468-1.512-.32-.793-2.55-5.8-3.45-6.129-.898-.32-3.265 1.598-3.265 1.598s-3.57-3.773-3.656-5.883c-.086-2.105 5.86-7.34 13.539-7.59 7.683-.257 12.238 2.032 13.664 6.407 0 0 2.996 3.55 2.746 8.187-.266 4.637-2.375 7.09-.855 10.965m0 0"/><path fill="#192351" d="M282.14 116.41a5.4 5.4 0 0 1-.413 2.082 5.5 5.5 0 0 1-.504.945 5.49 5.49 0 0 1-4.536 2.422 5.4 5.4 0 0 1-2.085-.418 5.3 5.3 0 0 1-.942-.504 5.3 5.3 0 0 1-.828-.675 5.7 5.7 0 0 1-.676-.825q-.298-.448-.504-.945a5.4 5.4 0 0 1-.312-1.02 5.4 5.4 0 0 1-.102-1.062 5.4 5.4 0 0 1 .414-2.086q.205-.497.504-.941.3-.446.676-.828.382-.376.828-.676t.942-.504a5.5 5.5 0 0 1 2.086-.414 5.4 5.4 0 0 1 2.085.414q.5.206.946.504.444.3.824.676a5.5 5.5 0 0 1 1.184 1.77 5.5 5.5 0 0 1 .414 2.085m0 0"/><path fill="#192351" d="M286.574 118.68q.251.391.438.808.186.422.297.86.112.434.148.867a4.4 4.4 0 0 1-.168 1.652 3.5 3.5 0 0 1-.312.715 3 3 0 0 1-.446.606 3.1 3.1 0 0 1-1.23.789q-.352.121-.738.156-.38.036-.778-.016a4 4 0 0 1-.797-.183 5 5 0 0 1-.777-.344 5.6 5.6 0 0 1-.73-.496 5.5 5.5 0 0 1-.657-.63 5.4 5.4 0 0 1-.554-.73 6 6 0 0 1-.438-.808 6 6 0 0 1-.297-.856 5.3 5.3 0 0 1-.148-.87 5 5 0 0 1 .008-.852q.042-.417.16-.797c.082-.258.183-.496.312-.719.125-.223.274-.422.445-.605a3.1 3.1 0 0 1 1.231-.79q.351-.121.738-.156.38-.036.778.016.397.048.796.183a4.915 4.915 0 0 1 1.508.844q.352.281.657.625c.203.227.39.473.554.73M285.82 110.2a5.4 5.4 0 0 1-.414 2.085 5.3 5.3 0 0 1-.504.942q-.3.446-.675.828-.382.376-.829.675c-.296.2-.613.368-.941.504a5.5 5.5 0 0 1-2.086.414q-.54 0-1.066-.105a5.5 5.5 0 0 1-1.024-.309 5.454 5.454 0 0 1-2.445-8.062 5.49 5.49 0 0 1 4.535-2.422 5.4 5.4 0 0 1 2.086.418c.328.137.645.305.941.504q.447.294.829.676.376.38.675.824.3.448.504.945a5.4 5.4 0 0 1 .313 1.02c.07.351.101.707.101 1.062m0 0"/><path fill="#192351" d="M292.32 110.078q0 .54-.105 1.063a5.43 5.43 0 0 1-3.262 3.972 5 5 0 0 1-1.023.309 5.4 5.4 0 0 1-2.125 0 5.2 5.2 0 0 1-1.024-.309 5.534 5.534 0 0 1-1.77-1.18 5.3 5.3 0 0 1-.675-.828q-.3-.444-.504-.94a5 5 0 0 1-.312-1.024 5.4 5.4 0 0 1 0-2.125 5 5 0 0 1 .312-1.02 5.5 5.5 0 0 1 1.18-1.77 5 5 0 0 1 .828-.675q.445-.3.941-.504a5.382 5.382 0 0 1 2.086-.414 5.4 5.4 0 0 1 2.086.414 5.5 5.5 0 0 1 1.77 1.18q.38.379.68.824a5.5 5.5 0 0 1 .917 3.027m0 0"/><path fill="#192351" d="M300.254 110.484q0 .54-.106 1.063a5.53 5.53 0 0 1-1.492 2.793q-.382.376-.828.676-.445.298-.941.504a5.5 5.5 0 0 1-2.086.414 5.4 5.4 0 0 1-2.086-.414 5.4 5.4 0 0 1-.945-.504q-.444-.3-.825-.676a5.5 5.5 0 0 1-1.183-1.77 5.5 5.5 0 0 1-.414-2.086q0-.533.105-1.062.104-.527.309-1.024a5.5 5.5 0 0 1 1.183-1.765q.38-.382.825-.676.449-.3.945-.504a5.424 5.424 0 0 1 5.113.504q.446.294.828.676a5.46 5.46 0 0 1 1.598 3.851m0 0"/><path fill="#192351" d="M304.398 116.21q-.001.535-.101 1.063a5.5 5.5 0 0 1-.817 1.965q-.3.444-.675.825-.382.38-.828.68c-.297.198-.614.362-.942.503a5.5 5.5 0 0 1-2.086.414q-.54 0-1.066-.105a5.5 5.5 0 0 1-1.024-.309 5.7 5.7 0 0 1-.941-.504 5.3 5.3 0 0 1-.824-.68 5.454 5.454 0 0 1-1.184-1.766 5.2 5.2 0 0 1-.308-1.023 5.4 5.4 0 0 1 0-2.125q.1-.526.308-1.023.205-.498.504-.941c.2-.297.426-.575.68-.825q.377-.38.824-.68.447-.299.941-.503a5.5 5.5 0 0 1 2.09-.414q.534 0 1.063.105.526.104 1.023.309a5.45 5.45 0 0 1 2.95 2.949q.206.497.312 1.023.1.526.101 1.063m0 0"/><path fill="#192351" d="M304.55 122.715a7.5 7.5 0 0 1-.07 2.101 6 6 0 0 1-.632 1.848q-.224.406-.504.734-.278.33-.602.57-.323.242-.676.384a2.68 2.68 0 0 1-1.48.156c-.25-.043-.5-.121-.742-.23a3.6 3.6 0 0 1-.707-.434 4.3 4.3 0 0 1-.649-.614 5.5 5.5 0 0 1-.558-.77 7 7 0 0 1-.45-.897 7.6 7.6 0 0 1-.44-4.149q.092-.51.25-.973c.108-.312.233-.601.386-.87q.223-.406.5-.735.28-.33.601-.57.323-.242.68-.383a2.684 2.684 0 0 1 1.477-.16c.253.047.5.12.746.234q.365.168.707.43c.226.175.445.383.644.613q.305.351.559.773c.172.282.32.579.453.899q.195.475.32.992.13.517.188 1.05M277.898 126.719s1.313-1.297 3.985-.727ZM280.941 128.86q.036.379-.16.671c-.133.192-.3.301-.511.32a.68.68 0 0 1-.56-.218.98.98 0 0 1-.284-.63 1 1 0 0 1 .16-.671.666.666 0 0 1 1.07-.102q.245.248.285.63m0 0"/><path fill="#dae4fe" d="M279.395 137.996s2.148.899 3.53-1.648"/><path fill="#192351" d="M290.219 125.293s1.668-1.535 2.203-.379c.539 1.156-1.328 3.781-1.328 3.781ZM289.055 142.227l-.106-.188c.028-.02 2.696-1.504 5.082-3.55l.137.163c-2.402 2.063-5.09 3.559-5.113 3.575m0 0"/><path fill="#4b6fdd" d="M286.96 146.008s-9.647.633-12.163 3.55c-2.508 2.926-3.485 20.344-3.207 32.192.277 11.848-.95 38.691-.102 40.531 2.496 5.43 15.278 9.395 46.012 8.895 0 0 3.8-.121 1.633-33.61-.95-14.609-.684-37.285-2.774-44.941-2.09-7.668-9.617-9.059-9.617-9.059l-2.793-2.16s-4.043-.07-7.523.14c-3.5.216-8.305 2.306-9.465 4.462m0 0"/><path fill="#db8e63" d="M270.953 149.531s.36-3.867-.14-5.086c-.5-1.215-1.254-2.718-1.875-4.015-.614-1.293-.7-2.547-1.641-2.07-.942.472.172 3.988.172 3.988s-1.418-1.563-2.489-4.075c-1.07-2.523-2.132-5.554-2.843-5.234-.7.32-.856.633-.856.633s-.726-.969-1.27-.734c-.542.23-.413 1.421-.413 1.421s-.97.149-1.125.625c-.157.465.39 4.688 1.574 7.5 0 0-2.402-4.824-2.637-4.668-.23.153.055 1.301 1.211 5.196 1.883 6.312 6.031 8.422 6.031 8.422Zm0 0"/><path fill="#192351" d="M262.648 143.71c-.007-.023-1.148-2.866-1.91-4.964a37 37 0 0 1-1.246-4.367l.207-.043c.012.023.485 2.262 1.238 4.344.758 2.09 1.891 4.93 1.899 4.953ZM264.617 142.684c-1.59-3.926-3.414-8.938-3.43-8.989l.2-.07c.015.055 1.84 5.055 3.43 8.98Zm0 0"/><path fill="#192351" d="m246.203 77.379 20.524 67.465c.527 1.726-.457 3.558-2.196 4.086l-125.187 37.613a3.3 3.3 0 0 1-4.106-2.188l-20.523-67.464a3.276 3.276 0 0 1 2.195-4.09l125.188-37.613a3.3 3.3 0 0 1 4.105 2.19m0 0"/><path fill="#192351" d="M138.402 187.266a3.89 3.89 0 0 1-3.718-2.746l-20.52-67.465a3.79 3.79 0 0 1 .293-2.942 3.82 3.82 0 0 1 2.29-1.875l125.187-37.613c2.05-.613 4.218.543 4.832 2.59l20.523 67.465c.3.984.195 2.027-.297 2.937a3.82 3.82 0 0 1-2.297 1.871l-125.187 37.614a3.7 3.7 0 0 1-1.106.164M243.043 75.625c-.262 0-.52.035-.777.113l-125.192 37.614a2.7 2.7 0 0 0-1.597 1.304 2.7 2.7 0 0 0-.207 2.055l20.523 67.465a2.7 2.7 0 0 0 3.367 1.797l125.192-37.614a2.7 2.7 0 0 0 1.597-1.304 2.69 2.69 0 0 0 .207-2.047l-20.523-67.465c-.344-1.164-1.426-1.918-2.59-1.918m0 0"/><path fill="#192351" d="m238.988 88.527-41.847 12.57a1.05 1.05 0 0 1-1.305-.699 1.04 1.04 0 0 1 .7-1.293l41.847-12.574a1.053 1.053 0 0 1 1.304.7 1.04 1.04 0 0 1-.699 1.296m0 0"/><path fill="#4b6fdd" d="m180.492 158.281-42.836 12.871-.308-.992 42.84-12.875ZM151.172 130.465l-20.383 6.125a1.735 1.735 0 0 1-2.152-1.149l-3.25-10.683a1.716 1.716 0 0 1 1.148-2.14l20.387-6.122a1.73 1.73 0 0 1 2.152 1.149l3.246 10.68a1.7 1.7 0 0 1-1.148 2.14M230.074 133.754q.846.452 1.586 1.062.743.61 1.352 1.352a10 10 0 0 1 1.062 1.59q.45.845.73 1.762.277.92.372 1.875c.062.632.062 1.27-.004 1.906a9.8 9.8 0 0 1-.371 1.867c-.188.613-.43 1.2-.735 1.762q-.452.844-1.062 1.582a9.6 9.6 0 0 1-1.352 1.343 9.5 9.5 0 0 1-1.59 1.055 9.7 9.7 0 0 1-3.64 1.094 9.75 9.75 0 0 1-7.14-2.184 9.6 9.6 0 0 1-1.352-1.351 9.6 9.6 0 0 1-1.059-1.586 9.7 9.7 0 0 1-.73-1.766 9.714 9.714 0 0 1 .004-5.648c.183-.61.43-1.196.73-1.758a10 10 0 0 1 1.063-1.586q.611-.739 1.351-1.344a10 10 0 0 1 1.59-1.054 9.7 9.7 0 0 1 3.644-1.09 9.5 9.5 0 0 1 1.91.004 10 10 0 0 1 1.876.375q.915.28 1.765.738m0 0"/><g mask="url(#n)"><g clip-path="url(#o)" transform="translate(222 125)"><path fill="#dae4fe" d="M19.188 5.406a9.6 9.6 0 0 1 2.94 2.418 9.6 9.6 0 0 1 1.06 1.586c.3.567.546 1.152.73 1.766q.28.918.371 1.87a9.7 9.7 0 0 1-.375 3.778 9.774 9.774 0 0 1-1.793 3.344c-.406.492-.86.937-1.351 1.344q-.746.604-1.59 1.054-.85.45-1.77.723a9.793 9.793 0 0 1-3.785.363 9.798 9.798 0 0 1-5.227-2.176 10 10 0 0 1-1.351-1.351 10 10 0 0 1-1.063-1.59 9.797 9.797 0 0 1-1.102-3.637 9.857 9.857 0 0 1 .375-3.777 10 10 0 0 1 .735-1.758q.452-.843 1.063-1.582a10 10 0 0 1 1.351-1.347 10 10 0 0 1 1.59-1.055 10 10 0 0 1 1.766-.723 9.794 9.794 0 0 1 3.79-.363 9.8 9.8 0 0 1 3.636 1.113m0 0"/></g></g><path fill="#dae4fe" d="m137.91 160.543-.683.207-.184-.59 1.34-.402 1.566 5.137-.66.199ZM140.82 164.074c1.02-1.496 1.996-2.902 1.676-3.957-.172-.57-.55-.922-1.254-.707-.664.2-.87.77-.699 1.426l-.621.187c-.285-1.101.223-1.878 1.148-2.156.97-.293 1.762.086 2.059 1.043.387 1.278-.656 2.781-1.348 3.809l2.446-.735.164.547-3.422 1.028ZM145.234 157.59c1.004-.305 1.73.12 1.953.855.184.586-.05 1.164-.55 1.45l.008.035c.64-.035 1.183.285 1.41 1.02.238.792-.121 1.585-1.203 1.905-.977.293-1.86-.007-2.239-.976l.621-.188c.235.528.762.829 1.446.621.691-.207.898-.707.734-1.234-.215-.726-.812-.855-1.738-.57l-.164.05-.164-.535.172-.05c.867-.27 1.246-.664 1.062-1.262-.144-.492-.578-.734-1.2-.543-.605.18-.862.629-.777 1.148l-.632.188c-.207-.914.304-1.629 1.261-1.914M149.117 161.578c1.02-1.492 1.996-2.902 1.676-3.953-.176-.57-.555-.926-1.254-.71-.664.198-.871.769-.7 1.425l-.62.191c-.297-1.105.222-1.883 1.148-2.16.965-.293 1.77.086 2.055 1.043.39 1.281-.664 2.781-1.356 3.809l2.446-.735.164.547-3.422 1.028ZM157.48 158.383l-2.636.793-.145-.492 1.45-4.204.777-.234 1.031 3.387.707-.219.172.563-.707.214.344 1.149-.637.191Zm-.14-.57-.82-2.711-1.086 3.28ZM161.55 152.79l.173.57-2.496.75.492 1.62c.12-.351.508-.714 1.02-.87 1.253-.38 1.925.406 2.167 1.199.301.996-.008 1.96-1.21 2.324-1.028.312-1.821-.086-2.204-.871l.633-.192c.285.5.8.7 1.406.52.79-.235.977-.863.762-1.574-.227-.73-.727-1.043-1.477-.82-.52.156-.812.538-.863.995l-.617.18-.879-2.902ZM165.992 152.797c-.25-.469-.633-.676-1.219-.492-.82.25-1.09.941-.62 2.468.066-.57.542-1.027 1.156-1.207.96-.285 1.796.145 2.132 1.223.286.941-.03 1.875-1.156 2.211-1.52.46-2.222-.523-2.695-2.078-.492-1.617-.278-2.766 1.027-3.16.985-.297 1.668.164 1.969.851Zm-1.488 2.824c.207.68.77 1.094 1.582.856.664-.2.95-.778.742-1.47-.223-.726-.742-1.081-1.476-.855-.598.172-1.079.7-.848 1.47M170.45 150.137l.148.492-.57 5.234-.657.196.613-5.172-2.75.832-.172-.555ZM174.71 148.73c1-.304 1.727.122 1.954.856.18.586-.055 1.164-.555 1.45l.008.034c.64-.035 1.184.285 1.41 1.02.243.793-.12 1.586-1.203 1.906-.976.293-1.855-.008-2.238-.976l.625-.188c.23.527.758.828 1.441.621.692-.207.899-.719.735-1.234-.223-.727-.813-.856-1.735-.57l-.168.05-.164-.535.176-.05c.856-.27 1.242-.665 1.063-1.262-.149-.493-.579-.735-1.204-.543-.605.18-.863.629-.777 1.148l-.629.188c-.207-.915.309-1.622 1.262-1.915M178.598 152.719c1.02-1.492 1.996-2.903 1.675-3.953-.171-.57-.55-.926-1.25-.711-.668.199-.875.77-.703 1.425l-.62.192c-.294-1.106.226-1.883 1.148-2.16.968-.293 1.773.086 2.058 1.043.387 1.28-.656 2.78-1.347 3.808l2.445-.734.164.547-3.422 1.027ZM184.648 145.844l.172.57-2.496.754.492 1.621c.121-.351.508-.715 1.02-.871 1.25-.379 1.926.406 2.168 1.2.3.991-.008 1.96-1.211 2.323-1.027.309-1.824-.086-2.203-.87l.633-.192c.285.5.8.7 1.406.52.785-.235.969-.868.762-1.575-.227-.734-.727-1.043-1.477-.82-.52.156-.812.535-.867.992l-.613.184-.88-2.903ZM189.078 145.855c-.25-.468-.629-.675-1.219-.492-.82.25-1.086.942-.613 2.469.07-.57.547-1.027 1.16-1.21.957-.286 1.797.148 2.125 1.226.285.941-.035 1.875-1.156 2.21-1.523.458-2.223-.527-2.7-2.081-.491-1.614-.273-2.762 1.032-3.16.984-.294 1.668.163 1.969.855Zm-1.484 2.82c.207.684.77 1.098 1.582.856.664-.199.949-.777.742-1.469-.215-.722-.734-1.07-1.477-.851-.597.172-1.082.7-.847 1.465M192.96 143.996l-.683.207-.183-.586 1.34-.406 1.566 5.137-.66.199ZM195.879 147.527c1.02-1.492 1.996-2.898 1.676-3.953-.172-.57-.551-.926-1.25-.707-.668.2-.875.766-.703 1.422l-.622.191c-.292-1.105.227-1.882 1.149-2.16.969-.293 1.773.09 2.059 1.047.386 1.278-.657 2.781-1.348 3.809l2.445-.735.164.543-3.422 1.028ZM201.824 140.707l.149.492-.57 5.235-.657.199.613-5.176-2.75.832-.172-.555ZM205.781 140.836c-.25-.465-.629-.672-1.219-.492-.82.242-1.085.941-.613 2.469.07-.567.547-1.028 1.16-1.208.957-.285 1.797.149 2.133 1.227.285.941-.035 1.875-1.156 2.211-1.524.457-2.223-.527-2.7-2.082-.491-1.613-.273-2.762 1.032-3.16.984-.293 1.668.164 1.969.855Zm-1.484 2.824c.207.684.77 1.098 1.582.856.664-.2.95-.778.742-1.47-.219-.726-.734-1.07-1.476-.855-.598.176-1.083.7-.848 1.47m0 0"/><path fill="#db8e63" d="M240.328 162.984s-1.496-3.047-2.8-4.168c-1.305-1.125-3.965-1.675-4.907-2.91-.941-1.234-2.082-3.695-3.758-3.015-1.68.683-.277 2.261.528 3.609a34 34 0 0 1 1.242 2.254s-1.332.492-2.254.89c-1.02.442-3.164 1.278-3.742 1.45s-2.582 1.011-2.516 1.332c.07.316.477 1.656 2.559 1.328s2.68-1.184 4.078-.27c1.398.918 6.058 3.317 6.058 3.317Zm0 0"/><path fill="#db8e63" d="M272.125 156.805s-5.547 9.394-5.883 15.058-11.113 9.617-11.113 9.617l-14.8-18.488-6.966 2.317s17.88 38.754 25.102 37.464c7.223-1.293 12.062-14.71 14.086-21.722 3.144-10.926 7.308-9.344 7.308-9.344Zm0 0"/><path fill="#4b6fdd" d="M276.387 158.324s.535-10.699-1.59-8.758c-1.582 1.45-7.18 9.973-12.176 18.348-1.562 2.617-7.57 12.04-7.57 12.04s-9.426-12.419-11.492-13.669c-2.063-1.254-7.352 2.64-8.028 4.438-.672 1.797-.078 7.484 5.383 14.453 2.293 2.918 4.184 8.543 7.328 12.383 3.137 3.843 9.309 10.386 14.2 6.277 4.89-4.11 11.8-9.566 13.617-14.93 1.625-4.793 4.941-9.23 4.941-9.23l1.938-9.824Zm0 0"/><path fill="#192351" d="M256.434 188.969c-1.043-2.91-1.536-8.946-1.547-9.008l.32-.024c.008.06.5 6.051 1.531 8.926ZM272.145 193.734l8.687-14.172.297.18-8.692 14.172ZM.07 328.965h383.938v4.785H.07Zm0 0"/><path fill="#192351" d="M203.992 320.977c-.941-1.47-3.004-2.813-5.91-3.973-2.773-1.094-6.332-2.02-10.41-2.684-4.54-.742-9.723-1.175-15.234-1.191-17.793-.07-32.231 6.484-32.266 11.777 0 .164.02.328.043.492.113.727.5 1.426 1.133 2.098.414.45.957.89 1.582 1.32.37.254.777.504 1.226.735 5.453 2.972 16.02 5.008 28.16 5.05 16.684.063 30.442-3.667 32.094-8.503.102-.32.172-.63.172-.957.008-.633-.2-3.567-.59-4.164m0 0"/><path fill="#192351" d="M140.172 318.293v7.098l2.617-2.582-1.184-3.852ZM204.59 325.14v-6.617h-3.172l.742 4.778Zm0 0"/><path fill="#dae4fe" d="M203.992 316.688c-.941-1.47-3.004-2.817-5.91-3.973-2.773-1.098-6.332-2.02-10.41-2.688-4.54-.742-9.723-1.172-15.234-1.191-17.793-.066-32.231 4.172-32.266 9.465 0 .164.02.328.043.492.113.727.5 1.426 1.133 2.098.414.449.957.89 1.582 1.32.37.25.777.504 1.226.734 5.453 2.973 16.02 5.008 28.16 5.051 16.684.063 30.442-3.668 32.094-8.504.102-.32.172-.629.172-.957.008-.64-.2-1.254-.59-1.848m0 0"/><path fill="#4b6fdd" d="M172.418 310.469c14.75.05 26.676 3.652 26.648 8.039-.023 4.387-11.992 7.902-26.742 7.84-14.75-.051-26.672-3.653-26.648-8.04.027-4.386 12.004-7.89 26.742-7.84m23.14 8.023c.028-3.808-10.331-6.933-23.148-6.988-12.805-.043-23.207 3.008-23.226 6.812-.016 3.809 10.336 6.934 23.148 6.989 12.816.05 23.211-3.008 23.227-6.813m0 0"/><path fill="#4b6fdd" d="M176.137 315.363c2.633.305 3.879.977 3.879 1.926v.149l-3.274-.008c0-.528-.441-.907-1.34-1.14l-1.425 1.741c4.113.211 6.261.692 6.253 1.711v.078c-.007 1.157-2.808 1.856-7.69 1.84-.517 0-.993-.02-1.477-.027l-.872 1.09-2.671-.008 1.039-1.27c-2.672-.34-4.047-1.011-4.036-1.902v-.059l3.274.008c0 .457.512.813 1.469 1.035l1.488-1.84c-4.246-.222-6.008-.757-6.008-1.656v-.078c.008-1.129 3.066-1.797 7.629-1.777.418 0 .84.008 1.219.023l.875-1.078 2.668.008Zm-4.739 2.532 1.524-1.891c-.164-.008-.356-.008-.52-.008h-.129c-2.351-.008-4.183.32-4.183.906v.051c0 .485.832.797 3.308.942m5.454 1.94v-.05c0-.543-1.086-.836-3.532-.984l-1.617 2.004c.258.007.52.007.77.007h.129c2.503.02 4.242-.343 4.25-.976m0 0"/><path fill="#192351" d="M203.992 313.008c-.941-1.469-3.004-2.817-5.91-3.973-2.773-1.098-6.332-2.02-10.41-2.683-4.54-.743-9.723-1.176-15.234-1.192-17.793-.07-32.231 6.485-32.266 11.777 0 .165.02.329.043.493.113.722.5 1.422 1.133 2.097.414.45.957.891 1.582 1.32.37.25.777.5 1.226.735 5.453 2.969 16.02 5.008 28.16 5.05 16.684.063 30.442-3.667 32.094-8.503.102-.32.172-.633.172-.961.008-.629-.2-3.566-.59-4.16m0 0"/><path fill="#192351" d="M140.172 310.32v7.102l2.617-2.582-1.184-3.863ZM204.59 317.168v-6.613h-3.172l.742 4.777Zm0 0"/><path fill="#dae4fe" d="M203.992 308.715c-.941-1.465-3.004-2.813-5.91-3.973-2.773-1.094-6.332-2.02-10.41-2.683-4.54-.743-9.723-1.176-15.234-1.192-17.793-.07-32.231 4.172-32.266 9.465 0 .164.02.328.043.492.113.723.5 1.422 1.133 2.098.414.45.957.89 1.582 1.32.37.25.777.5 1.226.735 5.453 2.968 16.02 5.007 28.16 5.05 16.684.063 30.442-3.668 32.094-8.504.102-.32.172-.632.172-.96.008-.637-.2-1.25-.59-1.848m0 0"/><path fill="#4b6fdd" d="M172.418 302.5c14.75.05 26.676 3.652 26.648 8.04-.023 4.386-11.992 7.897-26.742 7.839-14.75-.05-26.672-3.652-26.648-8.04.027-4.386 12.004-7.901 26.742-7.839m23.14 8.02c.028-3.81-10.331-6.934-23.148-6.985-12.805-.043-23.207 3.004-23.226 6.813-.016 3.808 10.336 6.933 23.148 6.984 12.816.055 23.211-3.004 23.227-6.812m0 0"/><path fill="#4b6fdd" d="M176.137 307.395c2.633.3 3.879.976 3.879 1.925v.149l-3.274-.012c0-.523-.441-.906-1.34-1.137l-1.425 1.743c4.113.207 6.261.69 6.253 1.71v.079c-.007 1.156-2.808 1.855-7.69 1.84-.517 0-.993-.02-1.477-.028l-.872 1.086-2.671-.008 1.039-1.27c-2.672-.335-4.047-1.007-4.036-1.898v-.058l3.274.007c0 .457.512.813 1.469 1.036l1.488-1.84c-4.246-.223-6.008-.758-6.008-1.656v-.079c.008-1.132 3.066-1.796 7.629-1.78.418 0 .84.01 1.219.026l.875-1.078 2.668.008Zm-4.739 2.53 1.524-1.89c-.164-.012-.356-.012-.52-.012h-.129c-2.351-.007-4.183.32-4.183.91v.051c0 .485.832.793 3.308.942m5.454 1.942v-.05c0-.544-1.086-.84-3.532-.985l-1.617 2.004c.258.008.52.008.77.008h.129c2.503.008 4.242-.344 4.25-.977m0 0"/><path fill="#192351" d="M163.848 306.809c-1.313-1.149-3.672-1.856-6.793-2.153-2.97-.273-6.645-.164-10.746.348-4.563.558-9.653 1.605-14.957 3.133-17.094 4.941-29.106 15.285-27.645 20.379.043.156.106.312.184.457.308.664.879 1.226 1.675 1.691.528.32 1.164.59 1.891.82.434.141.89.262 1.383.364 6.066 1.324 16.781.304 28.445-3.075 16.031-4.625 28.18-12.078 28.403-17.183a3 3 0 0 0-.102-.965c-.172-.598-1.203-3.352-1.738-3.816m0 0"/><path fill="#192351" d="m101.852 322.18 1.996 6.812 1.777-3.222-2.219-3.36ZM165.586 310.633l-1.867-6.348-3.031.89 2.054 4.38Zm0 0"/><path fill="#dae4fe" d="M162.637 302.688c-1.313-1.149-3.672-1.856-6.79-2.149-2.972-.277-6.644-.164-10.75.344-4.562.562-9.652 1.61-14.956 3.137-17.094 4.937-29.75 13.062-28.29 18.148.044.156.102.312.18.457.313.668.883 1.227 1.676 1.695.527.32 1.168.586 1.895.82q.645.205 1.382.364c6.063 1.32 16.778.3 28.446-3.074 16.027-4.63 28.175-12.082 28.402-17.184.016-.34-.02-.656-.105-.969-.18-.593-.551-1.12-1.09-1.59m0 0"/><path fill="#4b6fdd" d="M130.59 305.598c14.164-4.09 26.62-3.996 27.832.226 1.21 4.215-9.29 10.95-23.453 15.043-14.16 4.09-26.621 3.996-27.832-.226-1.207-4.215 9.281-10.95 23.453-15.043m24.46 1.191c-1.054-3.66-11.87-3.746-24.175-.187-12.305 3.554-21.422 9.402-20.367 13.062 1.055 3.664 11.875 3.75 24.176.191 12.304-3.558 21.421-9.402 20.367-13.066m0 0"/><path fill="#4b6fdd" d="M135.531 309.25c2.617-.45 4-.152 4.262.762l.043.136-3.156.907c-.145-.508-.68-.75-1.606-.715l-.87 2.07c4.007-.957 6.202-1.094 6.487-.12l.016.077c.32 1.117-2.168 2.567-6.867 3.93-.492.148-.961.27-1.426.39l-.535 1.286-2.566.742.636-1.512c-2.652.434-4.164.172-4.406-.68l-.016-.054 3.153-.906c.129.44.718.64 1.703.578l.906-2.184c-4.129.977-5.98.957-6.223.094l-.015-.074c-.313-1.09 2.437-2.582 6.816-3.852a43 43 0 0 1 1.176-.32l.535-1.278 2.567-.742Zm-3.836 3.766.926-2.235c-.156.031-.348.086-.504.13l-.117.034c-2.258.645-3.926 1.485-3.762 2.047l.02.043c.137.473 1.02.535 3.437-.02m5.782.328-.016-.043c-.149-.528-1.281-.492-3.664.043l-.996 2.375c.25-.059.492-.13.742-.207l.121-.035c2.422-.692 3.984-1.52 3.813-2.133M204.484 54.91l2.465 4.5 4.5 2.461-4.5 2.453-2.465 4.496-2.453-4.496-4.5-2.453 4.5-2.46Zm0 0"/><g clip-path="url(#p)"><path fill="#dae4fe" d="m227.625 47.54 1.797 3.28 3.293 1.805-3.293 1.793-1.797 3.293-1.797-3.293-3.293-1.793 3.293-1.805Zm0 0"/></g></svg>